<mxfile host="app.diagrams.net" modified="2023-07-01T16:51:38.703Z" agent="Mozilla/5.0 (Windows NT 10.0; Win64; x64) AppleWebKit/537.36 (KHTML, like Gecko) Chrome/114.0.0.0 Safari/537.36" etag="LZqrywSM7z2zgLnUWdGx" version="21.4.0" type="github">
  <diagram id="dGOGpCLeey213xIE_ilE" name="Page-1">
    <mxGraphModel dx="1395" dy="1799" grid="1" gridSize="10" guides="1" tooltips="1" connect="1" arrows="1" fold="1" page="1" pageScale="1" pageWidth="827" pageHeight="1169" math="0" shadow="0">
      <root>
        <mxCell id="0" />
        <mxCell id="1" parent="0" />
        <mxCell id="rlB1_ra6VnP8-Edz8Y6e-7" value="LinearRecurrentNetwork" style="swimlane;fontStyle=1;align=center;verticalAlign=top;childLayout=stackLayout;horizontal=1;startSize=26;horizontalStack=0;resizeParent=1;resizeParentMax=0;resizeLast=0;collapsible=1;marginBottom=0;" parent="1" vertex="1">
          <mxGeometry x="20" y="10" width="530" height="148" as="geometry" />
        </mxCell>
        <mxCell id="rlB1_ra6VnP8-Edz8Y6e-8" value="+ n: number of neurons&#xa;+ R" style="text;strokeColor=none;fillColor=none;align=left;verticalAlign=top;spacingLeft=4;spacingRight=4;overflow=hidden;rotatable=0;points=[[0,0.5],[1,0.5]];portConstraint=eastwest;" parent="rlB1_ra6VnP8-Edz8Y6e-7" vertex="1">
          <mxGeometry y="26" width="530" height="44" as="geometry" />
        </mxCell>
        <mxCell id="rlB1_ra6VnP8-Edz8Y6e-9" value="" style="line;strokeWidth=1;fillColor=none;align=left;verticalAlign=middle;spacingTop=-1;spacingLeft=3;spacingRight=3;rotatable=0;labelPosition=right;points=[];portConstraint=eastwest;" parent="rlB1_ra6VnP8-Edz8Y6e-7" vertex="1">
          <mxGeometry y="70" width="530" height="8" as="geometry" />
        </mxCell>
        <mxCell id="rlB1_ra6VnP8-Edz8Y6e-10" value=" + trial_response (method): Nxn dimensional array.&#xa; + random_interaction_matrix (method): randomly generate nxn dimensional symmetric matrix &#xa; " style="text;strokeColor=none;fillColor=none;align=left;verticalAlign=top;spacingLeft=4;spacingRight=4;overflow=hidden;rotatable=0;points=[[0,0.5],[1,0.5]];portConstraint=eastwest;" parent="rlB1_ra6VnP8-Edz8Y6e-7" vertex="1">
          <mxGeometry y="78" width="530" height="70" as="geometry" />
        </mxCell>
        <mxCell id="rlB1_ra6VnP8-Edz8Y6e-13" value="Use" style="endArrow=open;endSize=12;dashed=1;html=1;rounded=0;entryX=0.349;entryY=1.076;entryDx=0;entryDy=0;entryPerimeter=0;exitX=0.404;exitY=0.005;exitDx=0;exitDy=0;exitPerimeter=0;" parent="1" source="rlB1_ra6VnP8-Edz8Y6e-14" target="rlB1_ra6VnP8-Edz8Y6e-10" edge="1">
          <mxGeometry width="160" relative="1" as="geometry">
            <mxPoint x="209" y="400" as="sourcePoint" />
            <mxPoint x="500" y="370" as="targetPoint" />
          </mxGeometry>
        </mxCell>
        <mxCell id="rlB1_ra6VnP8-Edz8Y6e-14" value="TrialToTrialCorrelation" style="swimlane;fontStyle=1;align=center;verticalAlign=top;childLayout=stackLayout;horizontal=1;startSize=26;horizontalStack=0;resizeParent=1;resizeParentMax=0;resizeLast=0;collapsible=1;marginBottom=0;" parent="1" vertex="1">
          <mxGeometry x="20" y="250" width="390" height="160" as="geometry" />
        </mxCell>
        <mxCell id="rlB1_ra6VnP8-Edz8Y6e-15" value="+ n: number of neurons&#xa;+ R: " style="text;strokeColor=none;fillColor=none;align=left;verticalAlign=top;spacingLeft=4;spacingRight=4;overflow=hidden;rotatable=0;points=[[0,0.5],[1,0.5]];portConstraint=eastwest;" parent="rlB1_ra6VnP8-Edz8Y6e-14" vertex="1">
          <mxGeometry y="26" width="390" height="44" as="geometry" />
        </mxCell>
        <mxCell id="rlB1_ra6VnP8-Edz8Y6e-16" value="" style="line;strokeWidth=1;fillColor=none;align=left;verticalAlign=middle;spacingTop=-1;spacingLeft=3;spacingRight=3;rotatable=0;labelPosition=right;points=[];portConstraint=eastwest;" parent="rlB1_ra6VnP8-Edz8Y6e-14" vertex="1">
          <mxGeometry y="70" width="390" height="8" as="geometry" />
        </mxCell>
        <mxCell id="rlB1_ra6VnP8-Edz8Y6e-17" value=" + method: trial to trial correlation calculation&#xa; + ttc_max_align(sigma_trial, N_trial, repeats)&#xa; + ttc_random_align(sigma_trial, N_trial, repeats)&#xa; + ttc_sort_align(sigma_trial, N_trial)" style="text;strokeColor=none;fillColor=none;align=left;verticalAlign=top;spacingLeft=4;spacingRight=4;overflow=hidden;rotatable=0;points=[[0,0.5],[1,0.5]];portConstraint=eastwest;" parent="rlB1_ra6VnP8-Edz8Y6e-14" vertex="1">
          <mxGeometry y="78" width="390" height="82" as="geometry" />
        </mxCell>
        <mxCell id="5Ww3l1jQiTz27_lDTmvw-5" value="IntraTrialStab" style="swimlane;fontStyle=1;align=center;verticalAlign=top;childLayout=stackLayout;horizontal=1;startSize=26;horizontalStack=0;resizeParent=1;resizeParentMax=0;resizeLast=0;collapsible=1;marginBottom=0;whiteSpace=wrap;html=1;" parent="1" vertex="1">
          <mxGeometry x="470" y="250" width="240" height="240" as="geometry" />
        </mxCell>
        <mxCell id="5Ww3l1jQiTz27_lDTmvw-6" value="+ n: number of neurons&lt;br&gt;+ R:&amp;nbsp;" style="text;strokeColor=none;fillColor=none;align=left;verticalAlign=top;spacingLeft=4;spacingRight=4;overflow=hidden;rotatable=0;points=[[0,0.5],[1,0.5]];portConstraint=eastwest;whiteSpace=wrap;html=1;" parent="5Ww3l1jQiTz27_lDTmvw-5" vertex="1">
          <mxGeometry y="26" width="240" height="44" as="geometry" />
        </mxCell>
        <mxCell id="5Ww3l1jQiTz27_lDTmvw-7" value="" style="line;strokeWidth=1;fillColor=none;align=left;verticalAlign=middle;spacingTop=-1;spacingLeft=3;spacingRight=3;rotatable=0;labelPosition=right;points=[];portConstraint=eastwest;strokeColor=inherit;" parent="5Ww3l1jQiTz27_lDTmvw-5" vertex="1">
          <mxGeometry y="70" width="240" height="8" as="geometry" />
        </mxCell>
        <mxCell id="5Ww3l1jQiTz27_lDTmvw-8" value="+ EulerMaruyama&lt;br&gt;+ activity_max_align (h_det = e_max)&lt;br&gt;+ activity_rand_align&lt;br&gt;+ intra_sort_align&lt;br&gt;+ intra-trial stability score&lt;br&gt;+ plot tools:&lt;br&gt;&lt;span style=&quot;&quot;&gt;&lt;span style=&quot;white-space: pre;&quot;&gt;&amp;nbsp;&amp;nbsp;&amp;nbsp;&amp;nbsp;&lt;/span&gt;&lt;/span&gt;1.&amp;nbsp;" style="text;strokeColor=none;fillColor=none;align=left;verticalAlign=top;spacingLeft=4;spacingRight=4;overflow=hidden;rotatable=0;points=[[0,0.5],[1,0.5]];portConstraint=eastwest;whiteSpace=wrap;html=1;" parent="5Ww3l1jQiTz27_lDTmvw-5" vertex="1">
          <mxGeometry y="78" width="240" height="162" as="geometry" />
        </mxCell>
        <mxCell id="5Ww3l1jQiTz27_lDTmvw-11" value="Use" style="endArrow=open;endSize=12;dashed=1;html=1;rounded=0;entryX=0.881;entryY=1.072;entryDx=0;entryDy=0;entryPerimeter=0;exitX=0.5;exitY=0;exitDx=0;exitDy=0;" parent="1" source="5Ww3l1jQiTz27_lDTmvw-5" target="rlB1_ra6VnP8-Edz8Y6e-10" edge="1">
          <mxGeometry width="160" relative="1" as="geometry">
            <mxPoint x="387" y="250" as="sourcePoint" />
            <mxPoint x="414" y="192" as="targetPoint" />
          </mxGeometry>
        </mxCell>
        <mxCell id="1hIKZWcv42IM_LAckUPL-1" value="Dimensionality" style="swimlane;fontStyle=1;align=center;verticalAlign=top;childLayout=stackLayout;horizontal=1;startSize=26;horizontalStack=0;resizeParent=1;resizeParentMax=0;resizeLast=0;collapsible=1;marginBottom=0;whiteSpace=wrap;html=1;" vertex="1" parent="1">
          <mxGeometry x="827" y="-40" width="293" height="190" as="geometry" />
        </mxCell>
        <mxCell id="1hIKZWcv42IM_LAckUPL-2" value="+ n: number of neurons&lt;br&gt;+ R: the radius of eigenvalues&amp;nbsp;" style="text;strokeColor=none;fillColor=none;align=left;verticalAlign=top;spacingLeft=4;spacingRight=4;overflow=hidden;rotatable=0;points=[[0,0.5],[1,0.5]];portConstraint=eastwest;whiteSpace=wrap;html=1;" vertex="1" parent="1hIKZWcv42IM_LAckUPL-1">
          <mxGeometry y="26" width="293" height="64" as="geometry" />
        </mxCell>
        <mxCell id="1hIKZWcv42IM_LAckUPL-3" value="" style="line;strokeWidth=1;fillColor=none;align=left;verticalAlign=middle;spacingTop=-1;spacingLeft=3;spacingRight=3;rotatable=0;labelPosition=right;points=[];portConstraint=eastwest;strokeColor=inherit;" vertex="1" parent="1hIKZWcv42IM_LAckUPL-1">
          <mxGeometry y="90" width="293" height="8" as="geometry" />
        </mxCell>
        <mxCell id="1hIKZWcv42IM_LAckUPL-4" value="+ evok_activity(kappa, beta, L, basis_vectors, num_sample): calculate the evoked activity.&lt;br&gt;+&amp;nbsp;" style="text;strokeColor=none;fillColor=none;align=left;verticalAlign=top;spacingLeft=4;spacingRight=4;overflow=hidden;rotatable=0;points=[[0,0.5],[1,0.5]];portConstraint=eastwest;whiteSpace=wrap;html=1;" vertex="1" parent="1hIKZWcv42IM_LAckUPL-1">
          <mxGeometry y="98" width="293" height="92" as="geometry" />
        </mxCell>
      </root>
    </mxGraphModel>
  </diagram>
</mxfile>
